<svg xmlns="http://www.w3.org/2000/svg" width="256" height="256" viewBox="-6 -10 92 92"><rect x="-4.5" y="-8.5" width="89" height="89" rx="17" fill="#f2d6b4"/><clipPath id="c"><rect x="-4.5" y="-8.5" width="89" height="89" rx="17"/></clipPath><g clip-path="url(#c)"><style>.m-grin,.m-o,.tongue{display:none}</style><g transform="translate(80 0) scale(-1 1)"><g stroke="#2b2118" stroke-width="2.2" stroke-linejoin="round" stroke-linecap="round"><path d="M20 72C20 57 30 50 44 50C58 50 67 57 67 72Z" fill="#c44e3e"/><g fill="#fff4e5" stroke="none"><circle cx="29" cy="63" r="1.4"/><circle cx="37" cy="68" r="1.4"/><circle cx="55" cy="60" r="1.4"/><circle cx="61" cy="67" r="1.4"/><circle cx="47" cy="65" r="1.4"/><circle cx="33" cy="57.5" r="1.4"/></g><path d="M36.5 50.5L44 58.5L51.5 50.5L47 50L44 53.5L41 50Z" fill="#fff4e5"/><path d="M40 43h8v8.5h-8Z" fill="#aab6c4"/><path d="M40 46.5h8" fill="none" stroke-width="1.2"/><path d="M48 13L51 5.5" fill="none"/><circle class="antenna" cx="51.5" cy="4.5" r="2.7" fill="#e8a838"/><path d="M27 41C22 21 31 10 44 10C57 10 64 21 60 41C63.5 43 61.5 48 56 45.5L56 30L31 30L31 45.5C25.5 48 23.5 43 27 41Z" fill="#4a915b"/><path d="M58 22q1.5 6 1 13M29 20q-1.5 5-1 12" fill="none" stroke="#fff" stroke-width="1.4" opacity=".55"/><circle cx="57.2" cy="31" r="4.1" fill="#aab6c4"/><circle cx="57.2" cy="31" r="1.5" fill="#2f6b3e" stroke-width="1.2"/><circle cx="56.5" cy="39" r="1.9" fill="none" stroke="#e8a838" stroke-width="1.5"/><rect x="29.5" y="14" width="26" height="31" rx="11.5" fill="#eef1f4"/><path d="M50 40q4-2 5.3-8.5V36q-.7 6-5.3 4Z" fill="#cdd8e5" stroke="none"/><path d="M29.5 27C29.5 16.5 36 12.5 44 12.5C52 12.5 56 17.5 55.5 24C48.5 23 42.5 19.5 39.5 15.5C37.5 21 33.5 25 29.5 27Z" fill="#4a915b"/><path d="M33 21q3-5 8-6.5" fill="none" stroke="#fff" stroke-width="1.3" opacity=".6"/><path d="M35 14q-4-4.5-7.5-1.5q1.5 3.2 5 3.4q-3 2-2.5 5.4q4.5 1 5.5-4.5Z" fill="#e8a838" stroke-width="1.8"/><circle cx="35.2" cy="15.6" r="1.7" fill="#e8a838" stroke-width="1.6"/><path d="M39 33.5l-1.8 2.3l2.2.5" fill="none" stroke-width="1.5"/><path class="m-smile" d="M35 39.2q4.5-1.6 9 0q-4.5 4.6-9 0Z" fill="#c44e3e" stroke-width="1.7"/><path class="m-grin" d="M34.5 38.5q5-1 10 0q-5 7-10 0Z" fill="#fff" stroke="#c44e3e" stroke-width="2"/><ellipse class="m-o" cx="39.5" cy="40.5" rx="2" ry="2.5" fill="#c44e3e" stroke-width="1.5"/><g class="eyes"><g class="eye-l"><ellipse cx="35" cy="30" rx="2.7" ry="3.3" fill="#2f6b3e" stroke-width="1.7"/><path d="M32.4 28.2l-2.6-1.3M32.8 26.9l-1.8-1.9" fill="none" stroke-width="1.5"/></g><g class="eye-r"><ellipse cx="45" cy="30" rx="2.5" ry="3.1" fill="#2f6b3e" stroke-width="1.7"/><path d="M47.5 28.1l2.6-1.3M47.2 26.8l1.8-1.9" fill="none" stroke-width="1.5"/></g></g></g><circle cx="33" cy="36" r="2.1" fill="#ff9bb5" opacity=".75"/><circle cx="48.5" cy="36" r="1.9" fill="#ff9bb5" opacity=".75"/><circle cx="36" cy="29" r=".85" fill="#fff"/><circle cx="45.8" cy="29" r=".8" fill="#fff"/></g><g stroke="#2b2118" stroke-width="2.4" stroke-linejoin="round" stroke-linecap="round" fill="none"><path d="M71 19q4 3 4 8M75 16q5 4 5 11" stroke-width="1.8" opacity=".55"/><rect x="62" y="59" width="18" height="11" rx="3" fill="#e8a838"/><path d="M66 63h10" stroke-width="2"/><path d="M71 62.5L63 27" stroke-width="3.6"/><circle cx="62" cy="22.5" r="5.4" fill="#c44e3e"/><circle cx="60.3" cy="20.8" r="1.4" fill="#fff4e5" stroke="none"/><path d="M49 61Q59 50 64 33" stroke-width="8"/><path d="M49 61Q59 50 64 33" stroke="#aab6c4" stroke-width="4"/><circle cx="64" cy="31.5" r="3.6" fill="#aab6c4"/></g></g><rect x="-4.5" y="-8.5" width="89" height="89" rx="17" fill="none" stroke="#2b2118" stroke-width="2.6"/></svg>